<?xml version="1.0" encoding="UTF-8"?> <svg xmlns="http://www.w3.org/2000/svg" viewBox="0 0 512 425.76"><g id="bd380beb-1563-498c-8456-cd10518ad71e" data-name="Calque 2"><g id="eb99c60a-439d-491b-9914-76c5e10ac020" data-name="Capa 1"><path d="M509.41,165.62a32.37,32.37,0,0,0-17.75-17.48l-9-3.64V97A32.58,32.58,0,0,0,450.11,64.4H284.93L190.2,26A7.51,7.51,0,1,0,184.56,40L244.91,64.4H87.82L103.38,26a17.55,17.55,0,0,1,22.82-9.66l30.5,12.36a7.52,7.52,0,1,0,5.65-13.93L131.84,2.38a32.59,32.59,0,0,0-42.39,18L71.6,64.4H61.89A32.58,32.58,0,0,0,29.34,97v71.76L2.4,235.23a32.55,32.55,0,0,0,17.94,42.39l9,3.64v47.55a32.58,32.58,0,0,0,32.54,32.55H94a7.52,7.52,0,0,0,0-15H61.89a17.54,17.54,0,0,1-17.52-17.52V194.51h98.75c-17.34,13.71-40.49,37.42-50.25,71.58a7.51,7.51,0,0,0,14.45,4.13c10.14-35.49,37.54-58.86,53-69.65V346.33H124a7.52,7.52,0,1,0,0,15H227.07l74.66,30.25a7.6,7.6,0,0,0,2.82.55,7.52,7.52,0,0,0,2.83-14.48L267.1,361.36H424.18l-15.56,38.43a17.56,17.56,0,0,1-22.82,9.66L335.3,389a7.51,7.51,0,0,0-5.64,13.93l50.5,20.46a32.55,32.55,0,0,0,42.39-17.95l17.85-44.07h9.71a32.58,32.58,0,0,0,32.55-32.55V257.05l26.94-66.52a32.31,32.31,0,0,0-.19-24.91ZM26,263.69a17.51,17.51,0,0,1-9.66-22.82l13-32.13v56.31ZM93.45,151.55c-1.29-3-2.21-7.87,4.57-14.92,3.13-3.24,7.09-5.31,11.66-4.62,9.08,1.37,21.08,11.87,33.78,29.57,4.41,6.15,8.25,12.26,11.21,17.26-28.8-2.82-55.73-14.37-61.22-27.29Zm66.86,7.84c-11.93-17.91-29.83-39.44-48.38-42.24-9.14-1.38-17.69,1.75-24.73,9-5.4,5.61-13.58,17.12-7.58,31.22,3.72,8.77,12.14,16.2,23.08,22.06H44.37V97A17.54,17.54,0,0,1,61.89,79.43h98.42v80ZM467.63,328.81a17.54,17.54,0,0,1-17.52,17.52H175.33V200.57c15.45,10.79,42.85,34.16,53,69.65a7.51,7.51,0,0,0,14.45-4.13c-9.76-34.16-32.9-57.87-50.25-71.58H467.63ZM181,178.84c2.94-5,6.74-11,11.12-17.11C204.81,143.94,216.85,133.39,226,132c4.57-.69,8.53,1.38,11.66,4.63,6.79,7,5.86,11.88,4.57,14.91C236.7,164.47,209.76,176,181,178.84Zm286.67.64H232.94c10.94-5.86,19.36-13.29,23.08-22.06,6-14.1-2.18-25.61-7.58-31.22-7-7.3-15.6-10.43-24.73-9-18.55,2.8-36.45,24.33-48.38,42.24v-80H450.11A17.54,17.54,0,0,1,467.63,97v82.53Zm28,5.41-13,32.13V160.71l3.35,1.36a17.51,17.51,0,0,1,9.66,22.82Z" style="fill:#c89e4f"></path></g></g></svg> 