<svg version="1.1" xmlns="http://www.w3.org/2000/svg" xmlns:xlink="http://www.w3.org/1999/xlink" width="512.000000pt" height="512.000000pt" viewBox="0,0,256,256"><g fill="#c89e4f" fill-rule="nonzero" stroke="none" stroke-width="1" stroke-linecap="butt" stroke-linejoin="miter" stroke-miterlimit="10" stroke-dasharray="" stroke-dashoffset="0" font-family="none" font-weight="none" font-size="none" text-anchor="none" style="mix-blend-mode: normal"><g transform="translate(0,0)"><g><g transform="translate(0,0.07749) scale(0.5,0.5)"><g transform="translate(0,512) scale(0.1,-0.1)"><path d="M4535,4751c-16,-4 -39,-13 -50,-19c-11,-6 -200,-191 -420,-411c-220,-221 -405,-401 -411,-401c-6,0 -67,27 -135,59c-68,33 -185,80 -260,104c-418,139 -817,155 -1225,52c-173,-44 -294,-90 -489,-184c-483,-234 -956,-619 -1379,-1121c-158,-187 -180,-231 -156,-319c20,-77 324,-430 549,-639c186,-174 296,-263 550,-450l33,-25l-375,-376c-206,-207 -381,-387 -387,-401c-18,-33 -16,-119 3,-155c17,-34 50,-67 87,-85c33,-18 119,-16 155,3c17,9 210,196 430,416c220,221 405,401 411,401c6,0 67,-27 135,-59c68,-33 185,-80 260,-104c418,-139 817,-155 1225,-52c173,44 294,90 489,184c483,234 956,619 1379,1121c158,187 180,231 156,319c-20,77 -324,430 -549,639c-186,174 -296,263 -550,450l-33,25l375,376c206,207 381,387 387,401c17,31 16,119 0,150c-40,78 -125,120 -205,101zM2757,3825c196,-26 392,-81 567,-160l59,-26l-158,-159l-158,-158l-81,43c-45,24 -121,56 -171,71c-83,26 -103,28 -255,28c-152,0 -172,-2 -255,-28c-553,-170 -814,-772 -557,-1288l48,-97l-192,-192c-116,-116 -197,-190 -206,-187c-20,8 -241,171 -333,245c-205,167 -467,422 -609,596l-38,47l38,47c71,87 311,337 395,413c337,303 574,468 879,614c226,108 434,168 685,199c76,10 235,6 342,-8zM3835,3370c304,-218 625,-514 829,-763l38,-47l-38,-47c-22,-26 -100,-113 -175,-193c-232,-247 -479,-458 -734,-627c-477,-317 -958,-455 -1385,-399c-204,27 -397,81 -574,161l-59,26l158,159l158,158l81,-43c45,-24 122,-56 171,-71c83,-26 103,-28 255,-28c152,0 172,2 255,28c49,15 125,46 169,69c440,229 613,772 388,1217l-48,95l190,193c105,105 195,192 200,192c5,0 59,-36 121,-80zM2728,3080c34,-12 62,-25 62,-28c0,-9 -713,-722 -722,-722c-13,0 -49,127 -54,195c-21,260 167,511 429,570c81,19 204,12 285,-15zM3079,2728c104,-306 -89,-636 -411,-704c-89,-19 -187,-13 -275,17c-35,11 -63,24 -63,27c0,9 713,722 722,722c3,0 16,-28 27,-62z"></path></g></g></g></g></g></svg>