<?xml version="1.0" standalone="no"?>
<!DOCTYPE svg PUBLIC "-//W3C//DTD SVG 20010904//EN"
 "http://www.w3.org/TR/2001/REC-SVG-20010904/DTD/svg10.dtd">
<svg version="1.0" xmlns="http://www.w3.org/2000/svg"
 width="512.000000pt" height="512.000000pt" fill="#c89e4f" viewBox="0 0 512.000000 512.000000"
 preserveAspectRatio="xMidYMid meet">

<g transform="translate(0.000000,512.000000) scale(0.100000,-0.100000)"
stroke="none">
<path d="M3672 5104 c-267 -45 -514 -191 -686 -406 -117 -146 -215 -376 -234
-548 l-7 -65 -231 -3 -231 -2 -6 54 c-14 141 -120 234 -256 224 -119 -8 -207
-96 -218 -217 l-6 -61 -332 0 -332 0 -6 54 c-15 143 -119 234 -256 224 -119
-8 -207 -96 -218 -216 l-6 -61 -192 -3 c-188 -3 -192 -3 -232 -30 -22 -14 -48
-43 -59 -65 -18 -36 -19 -69 -19 -724 0 -661 1 -688 19 -708 13 -14 31 -21 57
-21 69 0 69 -3 69 407 l0 363 1347 0 1348 0 385 -385 c212 -212 391 -385 398
-385 9 0 12 -116 10 -527 l-3 -528 -1105 -3 -1106 -2 3 72 c6 123 14 177 29
193 12 12 46 15 171 15 94 0 172 5 197 12 53 16 118 81 134 134 17 58 17 690
0 747 -17 55 -82 122 -133 136 -51 14 -672 15 -746 1 -123 -23 -252 -117 -311
-225 -76 -144 -172 -625 -193 -977 l-7 -108 -203 0 c-176 0 -204 2 -209 16 -3
9 -6 190 -6 403 0 437 1 431 -69 431 -26 0 -44 -7 -57 -21 -18 -20 -19 -44
-22 -415 -3 -411 0 -449 40 -499 45 -57 81 -65 316 -65 l212 0 0 -22 c0 -159
47 -512 94 -718 82 -353 137 -451 301 -533 86 -42 135 -47 498 -47 309 0 346
2 382 19 51 23 101 79 114 128 15 52 14 685 0 738 -15 55 -52 101 -102 127
-37 20 -61 23 -220 28 -143 4 -180 8 -187 20 -12 19 -19 74 -22 178 l-3 82
1116 0 1116 0 44 23 c27 15 52 38 66 63 l23 39 0 537 0 536 33 21 c17 11 199
188 403 393 371 374 420 431 489 568 124 246 152 528 80 800 -14 52 -34 106
-44 120 -25 34 -82 39 -111 10 -26 -26 -24 -51 14 -195 22 -82 28 -122 28
-220 1 -173 -25 -288 -98 -442 -58 -121 -138 -214 -496 -570 -263 -263 -349
-343 -368 -343 -19 0 -106 82 -373 348 -192 191 -369 373 -393 405 -139 178
-217 435 -199 656 42 532 494 930 1019 898 244 -15 439 -102 622 -278 66 -64
89 -79 113 -79 41 0 71 31 71 74 0 66 -184 227 -363 316 -212 107 -452 143
-685 104z m-2717 -926 l26 -31 -3 -169 -3 -170 -28 -24 c-39 -33 -81 -31 -118
5 l-29 29 0 165 c0 163 0 166 26 196 37 44 91 44 129 -1z m1142 8 l28 -24 0
-177 0 -177 -28 -24 c-39 -33 -81 -31 -118 5 l-29 29 0 162 c0 162 5 191 39
217 27 21 77 15 108 -11z m-1447 -312 c0 -87 18 -133 75 -189 75 -76 165 -95
255 -54 95 43 140 113 148 227 l5 72 333 0 334 0 0 -56 c0 -87 18 -133 75
-189 75 -76 165 -95 255 -54 94 42 139 111 147 225 l6 74 231 -2 231 -3 7 -63
c10 -94 43 -214 83 -306 20 -44 39 -87 42 -93 4 -10 -258 -13 -1291 -13
l-1296 0 0 228 c0 164 3 231 12 240 8 8 63 12 180 12 l168 0 0 -56z m980
-1603 l0 -368 -38 -7 c-54 -8 -115 -56 -141 -109 -50 -103 -50 -681 0 -784 26
-53 87 -101 141 -109 l38 -7 0 -368 0 -369 -183 0 c-209 0 -257 9 -330 65 -62
48 -98 124 -146 315 -79 312 -105 525 -105 865 0 340 26 554 105 864 46 181
72 244 123 293 77 75 120 86 354 87 l182 1 0 -369z m310 349 c19 -19 20 -33
20 -350 0 -391 6 -370 -110 -370 l-70 0 0 370 0 370 70 0 c57 0 74 -4 90 -20z
m0 -1750 c19 -19 20 -33 20 -348 0 -393 6 -372 -106 -372 l-74 0 0 370 0 370
70 0 c57 0 74 -4 90 -20z"/>
<path d="M3731 4474 c-172 -46 -313 -197 -350 -372 -50 -241 95 -489 332 -564
80 -25 201 -27 282 -4 241 70 393 320 341 564 -28 135 -117 260 -230 327 -103
61 -257 81 -375 49z m250 -157 c107 -45 176 -124 205 -236 27 -108 -1 -219
-76 -305 -38 -43 -124 -96 -157 -96 -23 0 -23 2 -23 135 0 147 -6 169 -57 216
-43 40 -84 49 -220 49 -124 0 -124 0 -117 23 57 186 267 287 445 214z m-205
-400 c2 -7 3 -66 2 -130 l-3 -117 -52 24 c-71 33 -137 97 -168 161 -14 30 -25
59 -25 64 0 17 239 15 246 -2z"/>
</g>
</svg>
